<svg xmlns="http://www.w3.org/2000/svg" xmlns:xlink="http://www.w3.org/1999/xlink" width="182" height="55" viewBox="0 0 182 55">
    <defs>
        <filter id="a" width="104.7%" height="144.1%" x="-2.2%" y="-20.5%" filterUnits="objectBoundingBox">
            <feOffset dx="2" dy="2" in="SourceAlpha" result="shadowOffsetOuter1"/>
            <feGaussianBlur in="shadowOffsetOuter1" result="shadowBlurOuter1" stdDeviation="9"/>
            <feColorMatrix in="shadowBlurOuter1" result="shadowMatrixOuter1" values="0 0 0 0 0.262745098 0 0 0 0 0.294117647 0 0 0 0 0.349019608 0 0 0 0.15 0"/>
            <feMerge>
                <feMergeNode in="shadowMatrixOuter1"/>
                <feMergeNode in="SourceGraphic"/>
            </feMerge>
        </filter>
        <path id="b" d="M.092.04v19.008h114.506V.04z"/>
    </defs>
    <g fill="none" fill-rule="evenodd" filter="url(#a)" transform="translate(-111 -14)">
        <path fill="#FCB000" d="M128.47 35.744c.372-2.376 2.464-4.734 5.804-4.734h12.18c4.902 0 6.703 2.804 6.36 4.816-.458 2.683-2.663 3.317-4.476 3.658 1.793.353 3.989 2.013 3.63 4.586-.535 3.819-3.483 5.005-8.603 5.031h-.24c.03 0-14.956-.004-17.125 0l2.47-13.357zm11.691.043c-.618.79-4.251 5.007-6.9 8.274.565-2.703 1.565-8.487 2.447-9.674.87-1.17 2.101-1.358 2.101-1.358s-4.624-1.367-5.965 4.405c-.487 2.122-1.996 9.65-1.996 9.653.028.063 4.213.427 6.241-2.01.908-1.09 5.401-6.824 6.637-8.476 2.6-3.485 4.21-3.722 4.21-3.722s-4.134-.465-6.775 2.908z"/>
        <g transform="translate(162.127 30)">
            <mask id="c" fill="#fff">
                <use xlink:href="#b"/>
            </mask>
            <path fill="#000" d="M103.999 11.617l-.061-.016L105.946.425h-3.366L99.262 18.84h3.382l1.21-6.735h.051l3.988 6.758h3.953l-4.716-7.174 6.468-6.074h-3.58l-6.02 6zM98.462 9.43c.386-2.143-.8-4.063-5.455-4.063-2.626 0-4.563.44-6.143 1.028L84.61 18.864h3.411l1.994-11.127c.69-.265 1.356-.468 2.514-.468 2.222 0 2.776 1.097 2.582 2.18l-1.69 9.415h3.314l1.728-9.433zm-14.704.51c.617-3.418-1.912-4.71-4.986-4.71-2.003 0-3.145.262-4.338.77l-.98 2.048c1.47-.634 3.04-.836 4.356-.836 1.82 0 3.048.542 2.737 2.265l-.129.71c-4.968.285-8.981 1.474-9.501 4.779-.373 2.382 2.026 4.08 6.006 4.08 2.072 0 3.863-.1 5.238-.21l1.597-8.896zm-3.606 1.678l-1.03 5.8c-.625.054-.997.05-2.116.022-1.641-.036-3.068-.743-2.806-2.474.35-2.392 2.569-3.08 5.952-3.348zm-9.393-6.522c.356-2.111-1.591-5.054-6.658-5.054-2.53 0-5.96.605-6.324 2.608l-2.882 16.186c1.74.21 3.445.206 6.099.188 5.291-.027 8.338-1.272 8.893-5.279.369-2.7-1.9-4.44-3.753-4.812 1.873-.357 4.153-1.022 4.625-3.837zm-10.675 4.76l1.028-.036c4.184-.147 5.418 1.62 4.944 3.953-.457 2.24-2.301 3.176-4.804 3.176-1.04 0-1.586-.005-2.489-.046l1.32-7.046zm7.077-4.58c-.343 1.9-1.758 3.024-5.48 2.919-1.073-.028-1.335-.091-1.335-.091l1.046-5.785c.689-.275 1.35-.427 2.32-.427 2.529 0 3.851 1.13 3.449 3.383zM56.904.961c.399-.413 1.09-.624 1.09-.624-3.943-.941-8.229.366-8.906 3.658l-.284 1.597h-2.191l-.344 1.919h2.188l-2.036 11.334h3.359l2.037-11.334h2.545l.354-1.919h-2.555l.182-1.001c.308-1.698.87-3.292 4.07-2.749 0 0 .109-.505.491-.88zM42.291 18.846l2.383-13.253H41.48l-2.379 13.253h3.19zm-9.236-7.18l6.468-6.073h-3.581l-6.093 6.064L31.872.425H28.51l-3.322 18.44h3.38l1.22-6.84 4.033 6.821h3.957l-4.722-7.18zm-8.97-1.725c.61-3.418-1.918-4.71-4.988-4.71-2.005 0-3.127.266-4.316.776l-.999 2.038c1.465-.643 3.036-.832 4.353-.832 1.823 0 3.042.542 2.737 2.265l-.13.71c-4.97.285-8.982 1.474-9.502 4.779-.377 2.382 2.023 4.08 6.009 4.08 2.069 0 3.86-.1 5.237-.21l1.598-8.896zM20.47 11.62l-1.024 5.8c-.63.054-1.003.05-2.116.022-1.64-.036-3.07-.743-2.811-2.474.354-2.392 2.567-3.08 5.951-3.348zM5.537 18.864L15.193.424h-3.37L4.737 14.889 2.903.425H-.908l3.27 18.44h3.175z" mask="url(#c)"/>
        </g>
    </g>
</svg>
